HIERARCHY
ROOT Hips
{
    OFFSET 0.000000 0.000000 0.000000
    CHANNELS 6 Xposition Yposition Zposition Zrotation Yrotation Xrotation
    JOINT Chest
    {
        OFFSET 0.000000 1.634758 -0.000000
        CHANNELS 3 Zrotation Yrotation Xrotation
        JOINT Chest2
        {
            OFFSET 0.000000 2.197341 0.000000
            CHANNELS 3 Zrotation Yrotation Xrotation
            JOINT Neck
            {
                OFFSET 0.000000 0.961544 0.000000
                CHANNELS 3 Zrotation Yrotation Xrotation
                JOINT Head
                {
                    OFFSET 0.000000 0.632542 -0.032565
                    CHANNELS 3 Zrotation Yrotation Xrotation
                    End Site
                    {
                        OFFSET -0.000001 0.439502 2.922845
                    }
                }
            }
            JOINT LeftCollar
            {
                OFFSET 0.167536 0.778237 -0.168280
                CHANNELS 3 Zrotation Yrotation Xrotation
                JOINT LeftShoulder
                {
                    OFFSET 0.831514 -0.002900 0.006458
                    CHANNELS 3 Zrotation Yrotation Xrotation
                    JOINT LeftElbow
                    {
                        OFFSET 2.272872 -0.026639 0.059314
                        CHANNELS 3 Zrotation Yrotation Xrotation
                        JOINT LeftWrist
                        {
                            OFFSET 2.081982 -0.024402 0.054333
                            CHANNELS 3 Zrotation Yrotation Xrotation
                            JOINT LeftHandThumb1
                            {
                                OFFSET 0.218903 -0.128645 0.283837
                                CHANNELS 3 Zrotation Yrotation Xrotation
                                JOINT LeftHandThumb2
                                {
                                    OFFSET 0.137157 -0.025101 0.077902
                                    CHANNELS 3 Zrotation Yrotation Xrotation
                                    JOINT LeftHandThumb3
                                    {
                                        OFFSET 0.168595 -0.067221 0.024422
                                        CHANNELS 3 Zrotation Yrotation Xrotation
                                        End Site
                                        {
                                            OFFSET 0.252337 -0.084569 0.031795
                                        }
                                    }
                                }
                            }
                            JOINT LeftHandFore1
                            {
                                OFFSET 0.767340 -0.016076 0.196678
                                CHANNELS 3 Zrotation Yrotation Xrotation
                                JOINT LeftHandFore2
                                {
                                    OFFSET 0.179787 -0.120935 0.006845
                                    CHANNELS 3 Zrotation Yrotation Xrotation
                                    JOINT LeftHandFore3
                                    {
                                        OFFSET 0.061887 -0.113547 -0.006313
                                        CHANNELS 3 Zrotation Yrotation Xrotation
                                        End Site
                                        {
                                            OFFSET 0.017209 -0.192397 -0.007339
                                        }
                                    }
                                }
                            }
                            JOINT LeftHandMiddle1
                            {
                                OFFSET 0.709887 -0.008320 0.018526
                                CHANNELS 3 Zrotation Yrotation Xrotation
                                JOINT LeftHandMiddle2
                                {
                                    OFFSET 0.209082 -0.127858 0.000980
                                    CHANNELS 3 Zrotation Yrotation Xrotation
                                    JOINT LeftHandMiddle3
                                    {
                                        OFFSET 0.082275 -0.120571 -0.008749
                                        CHANNELS 3 Zrotation Yrotation Xrotation
                                        End Site
                                        {
                                            OFFSET 0.033303 -0.233203 -0.011720
                                        }
                                    }
                                }
                            }
                            JOINT LeftHandRing1
                            {
                                OFFSET 0.743817 -0.005823 -0.153668
                                CHANNELS 3 Zrotation Yrotation Xrotation
                                JOINT LeftHandRing2
                                {
                                    OFFSET 0.297971 -0.188845 -0.016849
                                    CHANNELS 3 Zrotation Yrotation Xrotation
                                    JOINT LeftHandRing3
                                    {
                                        OFFSET 0.071002 -0.115551 -0.014574
                                        CHANNELS 3 Zrotation Yrotation Xrotation
                                        End Site
                                        {
                                            OFFSET 0.007705 -0.119045 -0.013731
                                        }
                                    }
                                }
                            }
                            JOINT LeftHandLittle1
                            {
                                OFFSET 0.689408 -0.053302 -0.308304
                                CHANNELS 3 Zrotation Yrotation Xrotation
                                JOINT LeftHandLittle2
                                {
                                    OFFSET 0.167334 -0.098405 -0.019240
                                    CHANNELS 3 Zrotation Yrotation Xrotation
                                    JOINT LeftHandLittle3
                                    {
                                        OFFSET 0.057888 -0.103633 -0.020134
                                        CHANNELS 3 Zrotation Yrotation Xrotation
                                        End Site
                                        {
                                            OFFSET 0.032557 -0.183078 -0.041367
                                        }
                                    }
                                }
                            }
                        }
                    }
                }
            }
            JOINT RightCollar
            {
                OFFSET -0.167536 0.778237 -0.168280
                CHANNELS 3 Zrotation Yrotation Xrotation
                JOINT RightShoulder
                {
                    OFFSET -0.831514 -0.002900 0.006457
                    CHANNELS 3 Zrotation Yrotation Xrotation
                    JOINT RightElbow
                    {
                        OFFSET -2.272872 -0.026639 0.059313
                        CHANNELS 3 Zrotation Yrotation Xrotation
                        JOINT RightWrist
                        {
                            OFFSET -2.081982 -0.024402 0.054331
                            CHANNELS 3 Zrotation Yrotation Xrotation
                            JOINT RightHandThumb1
                            {
                                OFFSET -0.218911 -0.128571 0.283837
                                CHANNELS 3 Zrotation Yrotation Xrotation
                                JOINT RightHandThumb2
                                {
                                    OFFSET -0.137157 -0.025101 0.077902
                                    CHANNELS 3 Zrotation Yrotation Xrotation
                                    JOINT RightHandThumb3
                                    {
                                        OFFSET -0.161447 -0.079946 0.032909
                                        CHANNELS 3 Zrotation Yrotation Xrotation
                                        End Site
                                        {
                                            OFFSET -0.229400 -0.125438 0.058970
                                        }
                                    }
                                }
                            }
                            JOINT RightHandFore1
                            {
                                OFFSET -0.767344 -0.015991 0.196679
                                CHANNELS 3 Zrotation Yrotation Xrotation
                                JOINT RightHandFore2
                                {
                                    OFFSET -0.179817 -0.120896 0.006842
                                    CHANNELS 3 Zrotation Yrotation Xrotation
                                    JOINT RightHandFore3
                                    {
                                        OFFSET -0.061466 -0.113009 0.014589
                                        CHANNELS 3 Zrotation Yrotation Xrotation
                                        End Site
                                        {
                                            OFFSET -0.016693 -0.191773 0.017638
                                        }
                                    }
                                }
                            }
                            JOINT RightHandMiddle1
                            {
                                OFFSET -0.709887 -0.008302 0.018525
                                CHANNELS 3 Zrotation Yrotation Xrotation
                                JOINT RightHandMiddle2
                                {
                                    OFFSET -0.209066 -0.127876 0.000983
                                    CHANNELS 3 Zrotation Yrotation Xrotation
                                    JOINT RightHandMiddle3
                                    {
                                        OFFSET -0.082620 -0.119828 0.014125
                                        CHANNELS 3 Zrotation Yrotation Xrotation
                                        End Site
                                        {
                                            OFFSET -0.033889 -0.231958 0.026022
                                        }
                                    }
                                }
                            }
                            JOINT RightHandRing1
                            {
                                OFFSET -0.743819 -0.005785 -0.153669
                                CHANNELS 3 Zrotation Yrotation Xrotation
                                JOINT RightHandRing2
                                {
                                    OFFSET -0.297985 -0.188824 -0.016848
                                    CHANNELS 3 Zrotation Yrotation Xrotation
                                    JOINT RightHandRing3
                                    {
                                        OFFSET -0.071368 -0.116240 -0.000080
                                        CHANNELS 3 Zrotation Yrotation Xrotation
                                        End Site
                                        {
                                            OFFSET -0.008111 -0.119791 0.002161
                                        }
                                    }
                                }
                            }
                            JOINT RightHandLittle1
                            {
                                OFFSET -0.689403 -0.053298 -0.308303
                                CHANNELS 3 Zrotation Yrotation Xrotation
                                JOINT RightHandLittle2
                                {
                                    OFFSET -0.167339 -0.098401 -0.019241
                                    CHANNELS 3 Zrotation Yrotation Xrotation
                                    JOINT RightHandLittle3
                                    {
                                        OFFSET -0.058684 -0.104918 -0.006631
                                        CHANNELS 3 Zrotation Yrotation Xrotation
                                        End Site
                                        {
                                            OFFSET -0.035078 -0.187227 0.002041
                                        }
                                    }
                                }
                            }
                        }
                    }
                }
            }
        }
    }
    JOINT LeftHip
    {
        OFFSET 0.685143 0.673822 -0.044491
        CHANNELS 3 Zrotation Yrotation Xrotation
        JOINT LeftKnee
        {
            OFFSET 0.085364 -3.750208 0.017676
            CHANNELS 3 Zrotation Yrotation Xrotation
            JOINT LeftAnkle
            {
                OFFSET 0.094583 -4.155206 0.019585
                CHANNELS 3 Zrotation Yrotation Xrotation
                JOINT LeftToe
                {
                    OFFSET -0.000000 -0.395925 0.621478
                    CHANNELS 3 Zrotation Yrotation Xrotation
                    End Site
                    {
                        OFFSET -0.000000 -0.077878 0.321152
                    }
                }
            }
        }
    }
    JOINT RightHip
    {
        OFFSET -0.685143 0.673822 -0.044492
        CHANNELS 3 Zrotation Yrotation Xrotation
        JOINT RightKnee
        {
            OFFSET -0.085364 -3.750208 0.017677
            CHANNELS 3 Zrotation Yrotation Xrotation
            JOINT RightAnkle
            {
                OFFSET -0.094583 -4.155206 0.019585
                CHANNELS 3 Zrotation Yrotation Xrotation
                JOINT RightToe
                {
                    OFFSET -0.000000 -0.395925 0.621478
                    CHANNELS 3 Zrotation Yrotation Xrotation
                    End Site
                    {
                        OFFSET -0.000000 -0.077878 0.321152
                    }
                }
            }
        }
    }
}
MOTION
Frames: 7
Frame Time: 0.033333
-14.534511 6.602178 -25.468950 -170.190445 30.569695 173.372498 5.016353 -17.202106 20.354401 2.669490 2.641583 -6.838005 -3.497447 -4.884935 15.551506 0.275258 -5.330859 31.521494 -4.774509 -14.054420 0.154273 -28.644127 -25.836653 4.190886 0.472292 -54.234245 -0.929572 4.359279 8.682641 -63.006359 0.000010 -0.000010 -0.000002 2.668527 7.117682 11.315916 -6.670639 52.278027 29.111294 -64.361862 2.143198 -1.341264 -60.527115 12.262280 -4.033944 -58.670418 -9.136925 3.288314 -57.881004 2.202817 -4.699593 -57.194458 9.356730 -3.129993 -58.575287 7.602794 -10.225256 -56.358463 3.114379 3.326460 -56.775490 13.890774 -2.517056 -56.920753 11.088669 -9.207980 -58.819370 1.640444 6.890641 -54.831764 6.199288 6.735716 -63.574158 20.169416 -7.264009 -1.808079 8.138799 0.037051 57.731873 52.632961 1.390730 -175.368362 80.284439 -176.100693 -8.871261 -1.176308 -11.354528 -0.000009 -0.000002 0.000003 0.000000 -0.000002 -0.000002 0.000002 -0.000000 -0.000003 -0.000007 0.000002 0.000003 0.000003 0.000002 0.000002 -0.000002 -0.000005 0.000000 -0.000020 -0.000000 0.000005 0.000015 0.000009 -0.000005 0.000031 0.000005 -0.000002 -0.000012 0.000005 0.000005 0.000010 -0.000000 -0.000002 -0.000007 -0.000003 0.000002 -0.000032 0.000002 0.000000 -0.000007 -0.000000 0.000003 0.000017 -0.000000 -0.000009 47.089203 -6.439819 15.860789 0.252738 0.771539 36.272366 -15.557421 -43.367817 -27.295427 -0.000017 -0.000061 -0.000005 -3.062000 2.170088 -39.029514 -1.343230 -1.303412 91.726387 10.120053 -37.859119 -38.137108 0.000002 -0.000019 0.000004
-14.534490 6.550770 -25.470264 -170.190445 30.569695 173.372498 4.610384 -17.162207 20.968100 2.323828 2.620821 -6.338783 -3.449467 -4.800106 15.236086 0.260758 -5.051807 30.946043 -4.357828 -14.153805 0.140463 -26.499981 -26.138000 3.557703 0.482917 -54.614052 -0.942665 4.234431 8.684559 -63.066189 0.000015 -0.000007 0.000008 2.668522 7.117684 11.315915 -6.670640 52.278027 29.111294 -64.361847 2.143211 -1.341262 -60.527122 12.262283 -4.033947 -58.670425 -9.136925 3.288314 -57.880997 2.202828 -4.699584 -57.194458 9.356732 -3.129994 -58.575279 7.602794 -10.225253 -56.358463 3.114392 3.326469 -56.775494 13.890776 -2.517057 -56.920753 11.088666 -9.207985 -58.819378 1.640459 6.890647 -54.831764 6.199286 6.735718 -63.574158 20.169416 -7.264008 -2.006420 8.008263 0.047047 54.485958 53.443470 -0.156107 -175.545441 79.825623 -176.280502 -8.903697 -1.092991 -11.137240 0.000000 0.000002 -0.000005 0.000000 0.000002 0.000002 -0.000002 0.000009 -0.000014 -0.000009 0.000005 0.000002 0.000005 0.000002 -0.000002 -0.000005 -0.000000 0.000003 -0.000017 0.000010 0.000000 0.000017 0.000002 -0.000002 0.000031 0.000012 -0.000003 -0.000005 0.000007 0.000002 0.000012 -0.000002 0.000000 -0.000009 -0.000000 0.000003 -0.000020 -0.000003 0.000000 -0.000005 -0.000000 0.000000 0.000019 -0.000000 -0.000007 48.394596 -4.940283 15.264441 0.268836 0.792998 37.450916 -16.032074 -45.243206 -26.678890 -0.000017 -0.000073 -0.000009 -3.199594 2.172121 -39.594257 -1.366170 -1.302515 92.735260 10.024109 -37.611034 -38.363712 0.000009 0.000032 -0.000021
-14.534473 6.506004 -25.471470 -170.190445 30.569695 173.372498 4.264769 -17.124485 21.479141 2.026880 2.607435 -5.924450 -3.409626 -4.731075 14.975108 0.248945 -4.823996 30.467466 -4.011991 -14.240837 0.128426 -24.672657 -26.457033 3.006870 0.483415 -54.631882 -0.943286 4.103683 8.686354 -63.119732 0.000000 -0.000014 -0.000013 2.668526 7.117686 11.315915 -6.670633 52.278027 29.111294 -64.361855 2.143193 -1.341264 -60.527115 12.262284 -4.033947 -58.670418 -9.136925 3.288316 -57.881004 2.202812 -4.699586 -57.194454 9.356730 -3.129995 -58.575287 7.602797 -10.225255 -56.358463 3.114375 3.326465 -56.775486 13.890778 -2.517056 -56.920761 11.088669 -9.207979 -58.819370 1.640442 6.890644 -54.831764 6.199289 6.735720 -63.574158 20.169418 -7.264009 -2.151780 7.918983 0.054628 51.351971 54.058449 -1.556185 -175.622681 79.611603 -176.358948 -8.935132 -1.024423 -10.936112 -0.000002 0.000007 -0.000010 -0.000002 0.000010 -0.000002 0.000000 0.000003 -0.000002 -0.000002 0.000019 0.000009 0.000010 -0.000000 0.000003 -0.000010 0.000003 -0.000002 -0.000020 0.000010 0.000009 0.000017 0.000012 -0.000005 0.000029 0.000005 0.000002 -0.000003 0.000012 0.000010 0.000010 0.000002 0.000000 -0.000010 -0.000000 -0.000002 -0.000024 0.000012 0.000002 -0.000005 -0.000002 0.000009 0.000015 0.000002 -0.000005 49.553463 -3.602608 14.818094 0.282073 0.810000 38.397751 -16.473513 -46.796665 -25.967684 0.000008 0.000038 -0.000015 -3.322027 2.172704 -40.082062 -1.385956 -1.301420 93.606285 9.885809 -37.388779 -38.526295 -0.000012 -0.000050 0.000041
-14.534461 6.469083 -25.472563 -170.190445 30.569695 173.372498 3.998554 -17.093098 21.862970 1.796201 2.599758 -5.614401 -3.378615 -4.680016 14.778563 0.240196 -4.655056 30.106430 -3.756458 -14.314041 0.119339 -23.277994 -26.786608 2.575777 0.474377 -54.309879 -0.932159 3.973124 8.687978 -63.164661 -0.000007 -0.000006 0.000005 2.668520 7.117683 11.315916 -6.670640 52.278027 29.111301 -64.361862 2.143201 -1.341266 -60.527122 12.262283 -4.033944 -58.670410 -9.136925 3.288316 -57.881012 2.202819 -4.699590 -57.194454 9.356730 -3.129995 -58.575287 7.602797 -10.225255 -56.358467 3.114384 3.326461 -56.775494 13.890778 -2.517059 -56.920761 11.088665 -9.207979 -58.819389 1.640448 6.890639 -54.831764 6.199288 6.735715 -63.574158 20.169420 -7.264012 -2.237884 7.873664 0.059473 48.602913 54.464050 -2.635699 -175.619766 79.619713 -176.356049 -8.965367 -0.971503 -10.755811 -0.000007 0.000002 -0.000003 0.000000 0.000005 0.000002 -0.000002 0.000002 -0.000003 0.000000 0.000010 0.000012 0.000009 0.000002 0.000003 -0.000003 -0.000005 -0.000012 -0.000014 0.000009 0.000014 0.000010 0.000002 -0.000007 0.000034 0.000002 0.000002 -0.000007 0.000005 0.000007 0.000012 -0.000002 0.000002 -0.000007 -0.000002 -0.000002 -0.000029 0.000007 0.000010 -0.000005 -0.000002 0.000002 0.000015 0.000002 -0.000002 50.446487 -2.585620 14.528887 0.292037 0.822405 39.096798 -16.845779 -47.833099 -25.279375 0.000009 0.000038 0.000020 -3.425379 2.171538 -40.480858 -1.402150 -1.300296 94.319420 9.703722 -37.196999 -38.619083 0.000012 0.000043 -0.000018
-14.534454 6.441217 -25.473541 -170.190445 30.569695 173.372498 3.830094 -17.072132 22.096252 1.649197 2.596181 -5.427760 -3.356872 -4.649219 14.655854 0.234881 -4.552663 29.883093 -3.610416 -14.371819 0.114005 -22.428652 -27.122469 2.299507 0.456936 -53.669624 -0.910543 3.848847 8.689385 -63.198677 0.000005 -0.000009 0.000001 2.668526 7.117684 11.315916 -6.670637 52.278030 29.111298 -64.361862 2.143193 -1.341265 -60.527122 12.262281 -4.033947 -58.670418 -9.136925 3.288316 -57.881020 2.202812 -4.699591 -57.194454 9.356731 -3.129994 -58.575287 7.602793 -10.225253 -56.358467 3.114376 3.326461 -56.775494 13.890776 -2.517056 -56.920761 11.088666 -9.207989 -58.819389 1.640443 6.890638 -54.831760 6.199288 6.735719 -63.574150 20.169418 -7.264012 -2.257325 7.874110 0.060891 46.513596 54.657406 -3.218266 -175.545105 79.826584 -176.280075 -8.994201 -0.935132 -10.600988 -0.000012 0.000005 -0.000003 0.000000 -0.000000 0.000000 0.000003 0.000003 -0.000009 -0.000005 -0.000002 0.000012 0.000010 0.000003 -0.000002 -0.000003 0.000002 -0.000003 -0.000022 0.000002 0.000007 0.000019 -0.000000 0.000002 0.000027 0.000003 0.000002 -0.000002 -0.000005 0.000007 0.000015 0.000002 -0.000002 -0.000010 -0.000003 0.000002 -0.000024 -0.000007 0.000012 -0.000010 -0.000002 0.000002 0.000015 0.000002 -0.000009 50.952358 -2.047694 14.400474 0.298266 0.830017 39.529022 -16.651192 -47.867790 -24.625555 0.000009 0.000026 -0.000001 -3.505666 2.168819 -40.778465 -1.414278 -1.299323 94.854324 9.476586 -37.040520 -38.635906 0.000000 -0.000007 0.000009
-14.534451 6.423612 -25.474407 -170.190445 30.569695 173.372498 3.777379 -17.065197 22.155899 1.602188 2.595441 -5.382649 -3.345159 -4.641056 14.616132 0.233451 -4.525099 29.816381 -3.592801 -14.411479 0.113487 -22.228765 -27.458759 2.209020 0.432507 -52.729294 -0.879963 3.736944 8.690546 -63.219460 0.000009 0.000003 -0.000006 2.668520 7.117683 11.315914 -6.670642 52.278030 29.111301 -64.361855 2.143183 -1.341274 -60.527122 12.262279 -4.033944 -58.670410 -9.136928 3.288315 -57.880997 2.202802 -4.699597 -57.194454 9.356729 -3.129996 -58.575294 7.602796 -10.225256 -56.358456 3.114367 3.326449 -56.775494 13.890776 -2.517056 -56.920753 11.088669 -9.207979 -58.819370 1.640433 6.890627 -54.831760 6.199289 6.735718 -63.574158 20.169416 -7.264010 -2.201932 7.920662 0.058556 45.335827 54.632561 -3.152532 -175.399323 80.207329 -176.132065 -9.021423 -0.916235 -10.476323 0.000005 -0.000003 -0.000002 -0.000002 0.000005 0.000005 -0.000003 -0.000000 -0.000003 -0.000002 -0.000003 0.000002 0.000007 0.000003 0.000003 -0.000007 0.000005 -0.000003 -0.000010 0.000002 0.000005 0.000019 0.000009 -0.000007 0.000029 0.000009 -0.000002 -0.000005 -0.000000 0.000002 0.000009 0.000002 0.000000 -0.000007 -0.000000 0.000002 -0.000022 -0.000007 0.000012 -0.000007 0.000002 0.000002 0.000015 0.000002 -0.000005 51.197449 -1.791089 14.423975 0.300310 0.832498 39.670368 -15.896132 -46.830467 -23.738716 -0.002350 -0.010799 -1.359925 -3.559009 2.164078 -40.962406 -1.421896 -1.298655 95.190231 9.202318 -36.923428 -38.570412 -0.000002 0.000007 0.000003
-14.569288 6.415855 -25.475792 -170.288315 29.239767 173.434937 4.119988 -16.898972 21.477234 1.776117 2.551169 -4.870973 -2.988789 -2.994565 13.069166 0.063178 -1.226840 27.016125 -5.576965 -11.650921 0.202815 -28.524023 -12.445986 0.331831 0.465692 -53.994160 -0.921414 2.686350 8.575793 -56.638115 0.000010 -0.000009 0.000001 2.466783 6.633779 10.452686 -7.620908 47.663742 25.278740 -59.434017 1.894686 -1.122202 -55.580837 11.111274 -3.667101 -53.850990 -8.328691 2.773692 -53.285137 1.948291 -4.146630 -52.541615 8.507583 -2.862676 -53.718697 7.185444 -9.418936 -51.748814 2.759053 3.043107 -52.134315 12.768106 -2.148576 -52.176434 10.413949 -8.352603 -53.978329 1.435656 6.238855 -50.355919 5.809843 6.208153 -58.174770 18.778076 -6.292067 -2.001592 9.352468 0.043781 35.763309 48.545029 -15.446425 -17.330959 87.838943 -17.994017 -9.047098 -1.001875 -10.371704 0.000002 0.000005 0.000000 0.000002 -0.000000 -0.000003 -0.000005 0.000007 -0.000008 0.000007 0.000007 0.000008 0.000010 0.000007 0.000003 -0.000009 -0.000002 0.000004 -0.000007 0.000010 0.000001 0.000015 0.000002 -0.000004 0.000034 0.000003 0.000005 0.000014 0.000005 0.000010 0.000014 0.000002 -0.000005 -0.000007 -0.000005 0.000009 -0.000020 0.000003 0.000001 -0.000005 -0.000002 -0.000001 0.000014 0.000003 -0.000008 51.428799 -1.585398 12.664518 0.316656 0.851808 40.782001 -15.277991 -45.235054 -26.319157 -0.000002 -0.000002 0.000013 -3.880593 2.155982 -40.955517 -1.421930 -1.298653 95.191704 10.168917 -33.618214 -42.021450 -0.000003 -0.000002 0.000002
